<mxfile host="app.diagrams.net" modified="2023-10-16T15:37:00.648Z" agent="Mozilla/5.0 (Windows NT 10.0; Win64; x64) AppleWebKit/537.36 (KHTML, like Gecko) Chrome/118.0.0.0 Safari/537.36" etag="xE72yOHe77K_jLa5j5AD" version="22.0.4" type="github">
  <diagram name="Page-1" id="_2jABqcEs_TQi6PSZyCa">
    <mxGraphModel dx="1257" dy="813" grid="1" gridSize="10" guides="1" tooltips="1" connect="1" arrows="1" fold="1" page="1" pageScale="1" pageWidth="1200" pageHeight="900" math="0" shadow="0">
      <root>
        <mxCell id="0" />
        <mxCell id="1" parent="0" />
        <mxCell id="ziJXCf28_5QpLwwIjKBP-3" value="" style="rounded=0;whiteSpace=wrap;html=1;" vertex="1" parent="1">
          <mxGeometry x="40" width="1080" height="560" as="geometry" />
        </mxCell>
        <mxCell id="MYsSgo4POYtnwkgsz7Fz-1" value="CCOE组织" style="rounded=0;whiteSpace=wrap;html=1;sketch=0;strokeColor=#9673a6;fillColor=#e1d5e7;" parent="1" vertex="1">
          <mxGeometry x="240" y="40" width="680" height="40" as="geometry" />
        </mxCell>
        <mxCell id="MYsSgo4POYtnwkgsz7Fz-2" value="定义/导入一个统一且标准的IT架构与平台" style="rounded=0;whiteSpace=wrap;html=1;sketch=0;strokeColor=#d79b00;fillColor=#ffe6cc;" parent="1" vertex="1">
          <mxGeometry x="240" y="80" width="240" height="40" as="geometry" />
        </mxCell>
        <mxCell id="MYsSgo4POYtnwkgsz7Fz-3" value="按照IT架构在平台中构建应用" style="rounded=0;whiteSpace=wrap;html=1;sketch=0;strokeColor=#666666;fillColor=#f5f5f5;fontColor=#333333;" parent="1" vertex="1">
          <mxGeometry x="480" y="80" width="200" height="80" as="geometry" />
        </mxCell>
        <mxCell id="MYsSgo4POYtnwkgsz7Fz-4" value="持续提升组织能力" style="rounded=0;whiteSpace=wrap;html=1;sketch=0;strokeColor=#d6b656;fillColor=#fff2cc;" parent="1" vertex="1">
          <mxGeometry x="680" y="80" width="240" height="40" as="geometry" />
        </mxCell>
        <mxCell id="MYsSgo4POYtnwkgsz7Fz-5" value="学院&lt;br&gt;人才培训" style="rounded=0;whiteSpace=wrap;html=1;sketch=0;strokeColor=#d6b656;fillColor=#fff2cc;" parent="1" vertex="1">
          <mxGeometry x="680" y="120" width="120" height="40" as="geometry" />
        </mxCell>
        <mxCell id="MYsSgo4POYtnwkgsz7Fz-6" value="研究院&lt;br&gt;新技术探索" style="rounded=0;whiteSpace=wrap;html=1;sketch=0;strokeColor=#d6b656;fillColor=#fff2cc;" parent="1" vertex="1">
          <mxGeometry x="800" y="120" width="120" height="40" as="geometry" />
        </mxCell>
        <UserObject label="业务" link="https://github.com/AdenLin1993" linkTarget="_blank" id="MYsSgo4POYtnwkgsz7Fz-7">
          <mxCell style="rounded=0;whiteSpace=wrap;html=1;sketch=0;strokeColor=#6c8ebf;fillColor=#dae8fc;" parent="1" vertex="1">
            <mxGeometry x="240" width="680" height="40" as="geometry" />
          </mxCell>
        </UserObject>
        <mxCell id="MYsSgo4POYtnwkgsz7Fz-8" value="公有云" style="rounded=0;whiteSpace=wrap;html=1;fillColor=#ffe6cc;strokeColor=#d79b00;" parent="1" vertex="1">
          <mxGeometry x="240" y="120" width="80" height="40" as="geometry" />
        </mxCell>
        <mxCell id="MYsSgo4POYtnwkgsz7Fz-9" value="私有云" style="rounded=0;whiteSpace=wrap;html=1;fillColor=#ffe6cc;strokeColor=#d79b00;" parent="1" vertex="1">
          <mxGeometry x="320" y="120" width="80" height="40" as="geometry" />
        </mxCell>
        <mxCell id="MYsSgo4POYtnwkgsz7Fz-10" value="边缘设备" style="rounded=0;whiteSpace=wrap;html=1;fillColor=#ffe6cc;strokeColor=#d79b00;" parent="1" vertex="1">
          <mxGeometry x="400" y="120" width="80" height="40" as="geometry" />
        </mxCell>
        <mxCell id="MYsSgo4POYtnwkgsz7Fz-11" value="" style="group" parent="1" connectable="0" vertex="1">
          <mxGeometry x="262.99666666666667" y="160" width="657.0033333333333" height="400" as="geometry" />
        </mxCell>
        <mxCell id="MYsSgo4POYtnwkgsz7Fz-12" value="" style="rounded=0;whiteSpace=wrap;html=1;sketch=0;strokeColor=default;" parent="MYsSgo4POYtnwkgsz7Fz-11" vertex="1">
          <mxGeometry x="-22.99666666666667" width="680" height="400" as="geometry" />
        </mxCell>
        <mxCell id="MYsSgo4POYtnwkgsz7Fz-13" value="AIaaS" style="rounded=0;whiteSpace=wrap;html=1;sketch=0;strokeColor=default;" parent="MYsSgo4POYtnwkgsz7Fz-11" vertex="1">
          <mxGeometry x="544" width="90" height="40" as="geometry" />
        </mxCell>
        <mxCell id="MYsSgo4POYtnwkgsz7Fz-14" style="edgeStyle=orthogonalEdgeStyle;curved=1;rounded=1;sketch=0;orthogonalLoop=1;jettySize=auto;html=1;entryX=0;entryY=0.5;entryDx=0;entryDy=0;" parent="MYsSgo4POYtnwkgsz7Fz-11" source="MYsSgo4POYtnwkgsz7Fz-15" target="MYsSgo4POYtnwkgsz7Fz-13" edge="1">
          <mxGeometry relative="1" as="geometry" />
        </mxCell>
        <mxCell id="MYsSgo4POYtnwkgsz7Fz-15" value="DaaS" style="rounded=0;whiteSpace=wrap;html=1;sketch=0;strokeColor=default;" parent="MYsSgo4POYtnwkgsz7Fz-11" vertex="1">
          <mxGeometry x="408" width="90" height="40" as="geometry" />
        </mxCell>
        <mxCell id="MYsSgo4POYtnwkgsz7Fz-16" style="edgeStyle=orthogonalEdgeStyle;curved=1;rounded=1;sketch=0;orthogonalLoop=1;jettySize=auto;html=1;entryX=0;entryY=0.5;entryDx=0;entryDy=0;" parent="MYsSgo4POYtnwkgsz7Fz-11" source="MYsSgo4POYtnwkgsz7Fz-17" target="MYsSgo4POYtnwkgsz7Fz-15" edge="1">
          <mxGeometry relative="1" as="geometry" />
        </mxCell>
        <mxCell id="MYsSgo4POYtnwkgsz7Fz-17" value="SaaS" style="rounded=0;whiteSpace=wrap;html=1;sketch=0;strokeColor=default;" parent="MYsSgo4POYtnwkgsz7Fz-11" vertex="1">
          <mxGeometry x="266.33000000000004" width="90" height="40" as="geometry" />
        </mxCell>
        <mxCell id="MYsSgo4POYtnwkgsz7Fz-18" style="edgeStyle=orthogonalEdgeStyle;curved=1;rounded=1;sketch=0;orthogonalLoop=1;jettySize=auto;html=1;entryX=0;entryY=0.5;entryDx=0;entryDy=0;" parent="MYsSgo4POYtnwkgsz7Fz-11" source="MYsSgo4POYtnwkgsz7Fz-19" target="MYsSgo4POYtnwkgsz7Fz-17" edge="1">
          <mxGeometry relative="1" as="geometry" />
        </mxCell>
        <mxCell id="MYsSgo4POYtnwkgsz7Fz-19" value="PaaS" style="rounded=0;whiteSpace=wrap;html=1;sketch=0;strokeColor=default;" parent="MYsSgo4POYtnwkgsz7Fz-11" vertex="1">
          <mxGeometry x="136" width="90" height="40" as="geometry" />
        </mxCell>
        <mxCell id="MYsSgo4POYtnwkgsz7Fz-20" style="edgeStyle=orthogonalEdgeStyle;curved=1;rounded=1;sketch=0;orthogonalLoop=1;jettySize=auto;html=1;" parent="MYsSgo4POYtnwkgsz7Fz-11" source="MYsSgo4POYtnwkgsz7Fz-21" target="MYsSgo4POYtnwkgsz7Fz-19" edge="1">
          <mxGeometry relative="1" as="geometry" />
        </mxCell>
        <mxCell id="MYsSgo4POYtnwkgsz7Fz-21" value="&lt;span&gt;IaaS&lt;/span&gt;" style="rounded=0;whiteSpace=wrap;html=1;sketch=0;strokeColor=default;" parent="MYsSgo4POYtnwkgsz7Fz-11" vertex="1">
          <mxGeometry width="90" height="40" as="geometry" />
        </mxCell>
        <mxCell id="MYsSgo4POYtnwkgsz7Fz-22" style="edgeStyle=orthogonalEdgeStyle;curved=1;rounded=1;sketch=0;orthogonalLoop=1;jettySize=auto;html=1;" parent="MYsSgo4POYtnwkgsz7Fz-11" edge="1">
          <mxGeometry relative="1" as="geometry">
            <mxPoint x="89.99999999999986" y="19.5" as="sourcePoint" />
            <mxPoint x="136.00000000000009" y="19.5" as="targetPoint" />
          </mxGeometry>
        </mxCell>
        <mxCell id="MYsSgo4POYtnwkgsz7Fz-23" value="" style="group" parent="1" connectable="0" vertex="1">
          <mxGeometry x="260" y="210" width="90" height="350" as="geometry" />
        </mxCell>
        <mxCell id="MYsSgo4POYtnwkgsz7Fz-24" value="基础理论" style="rounded=0;whiteSpace=wrap;html=1;fillColor=#d5e8d4;strokeColor=#82b366;" parent="MYsSgo4POYtnwkgsz7Fz-23" vertex="1">
          <mxGeometry y="330" width="90" height="20" as="geometry" />
        </mxCell>
        <mxCell id="MYsSgo4POYtnwkgsz7Fz-25" value="存储系统" style="rounded=0;whiteSpace=wrap;html=1;" parent="MYsSgo4POYtnwkgsz7Fz-23" vertex="1">
          <mxGeometry y="150" width="90" height="20" as="geometry" />
        </mxCell>
        <mxCell id="MYsSgo4POYtnwkgsz7Fz-26" value="数据治理" style="rounded=0;whiteSpace=wrap;html=1;" parent="MYsSgo4POYtnwkgsz7Fz-23" vertex="1">
          <mxGeometry y="30" width="90" height="20" as="geometry" />
        </mxCell>
        <mxCell id="MYsSgo4POYtnwkgsz7Fz-27" value="机房基础设施" style="rounded=0;whiteSpace=wrap;html=1;fillColor=#d5e8d4;strokeColor=#82b366;" parent="MYsSgo4POYtnwkgsz7Fz-23" vertex="1">
          <mxGeometry y="300" width="90" height="20" as="geometry" />
        </mxCell>
        <mxCell id="MYsSgo4POYtnwkgsz7Fz-28" value="计算机网络" style="rounded=0;whiteSpace=wrap;html=1;fillColor=#d5e8d4;strokeColor=#82b366;" parent="MYsSgo4POYtnwkgsz7Fz-23" vertex="1">
          <mxGeometry y="270" width="90" height="20" as="geometry" />
        </mxCell>
        <mxCell id="MYsSgo4POYtnwkgsz7Fz-29" value="磁盘柜" style="rounded=0;whiteSpace=wrap;html=1;fillColor=#d5e8d4;strokeColor=#82b366;" parent="MYsSgo4POYtnwkgsz7Fz-23" vertex="1">
          <mxGeometry y="240" width="90" height="20" as="geometry" />
        </mxCell>
        <mxCell id="MYsSgo4POYtnwkgsz7Fz-30" value="服务器/虚拟机" style="rounded=0;whiteSpace=wrap;html=1;fillColor=#d5e8d4;strokeColor=#82b366;" parent="MYsSgo4POYtnwkgsz7Fz-23" vertex="1">
          <mxGeometry y="210" width="90" height="20" as="geometry" />
        </mxCell>
        <mxCell id="MYsSgo4POYtnwkgsz7Fz-31" value="操作系统" style="rounded=0;whiteSpace=wrap;html=1;" parent="MYsSgo4POYtnwkgsz7Fz-23" vertex="1">
          <mxGeometry y="180" width="90" height="20" as="geometry" />
        </mxCell>
        <mxCell id="MYsSgo4POYtnwkgsz7Fz-32" value="中间件/运行库" style="rounded=0;whiteSpace=wrap;html=1;" parent="MYsSgo4POYtnwkgsz7Fz-23" vertex="1">
          <mxGeometry y="120" width="90" height="20" as="geometry" />
        </mxCell>
        <mxCell id="MYsSgo4POYtnwkgsz7Fz-33" value="数据信息" style="rounded=0;whiteSpace=wrap;html=1;" parent="MYsSgo4POYtnwkgsz7Fz-23" vertex="1">
          <mxGeometry y="90" width="90" height="20" as="geometry" />
        </mxCell>
        <mxCell id="MYsSgo4POYtnwkgsz7Fz-34" value="应用程序" style="rounded=0;whiteSpace=wrap;html=1;" parent="MYsSgo4POYtnwkgsz7Fz-23" vertex="1">
          <mxGeometry y="60" width="90" height="20" as="geometry" />
        </mxCell>
        <mxCell id="MYsSgo4POYtnwkgsz7Fz-35" value="人工智能" style="rounded=0;whiteSpace=wrap;html=1;" parent="MYsSgo4POYtnwkgsz7Fz-23" vertex="1">
          <mxGeometry width="90" height="20" as="geometry" />
        </mxCell>
        <mxCell id="MYsSgo4POYtnwkgsz7Fz-36" value="" style="group" parent="1" connectable="0" vertex="1">
          <mxGeometry x="529" y="210" width="90" height="350" as="geometry" />
        </mxCell>
        <mxCell id="MYsSgo4POYtnwkgsz7Fz-37" value="基础理论" style="rounded=0;whiteSpace=wrap;html=1;fillColor=#d5e8d4;strokeColor=#82b366;" parent="MYsSgo4POYtnwkgsz7Fz-36" vertex="1">
          <mxGeometry y="330" width="90" height="20" as="geometry" />
        </mxCell>
        <mxCell id="MYsSgo4POYtnwkgsz7Fz-38" value="存储系统" style="rounded=0;whiteSpace=wrap;html=1;fillColor=#d5e8d4;strokeColor=#82b366;" parent="MYsSgo4POYtnwkgsz7Fz-36" vertex="1">
          <mxGeometry y="150" width="90" height="20" as="geometry" />
        </mxCell>
        <mxCell id="MYsSgo4POYtnwkgsz7Fz-39" value="数据治理" style="rounded=0;whiteSpace=wrap;html=1;" parent="MYsSgo4POYtnwkgsz7Fz-36" vertex="1">
          <mxGeometry y="30" width="90" height="20" as="geometry" />
        </mxCell>
        <mxCell id="MYsSgo4POYtnwkgsz7Fz-40" value="机房基础设施" style="rounded=0;whiteSpace=wrap;html=1;fillColor=#d5e8d4;strokeColor=#82b366;" parent="MYsSgo4POYtnwkgsz7Fz-36" vertex="1">
          <mxGeometry y="300" width="90" height="20" as="geometry" />
        </mxCell>
        <mxCell id="MYsSgo4POYtnwkgsz7Fz-41" value="计算机网络" style="rounded=0;whiteSpace=wrap;html=1;fillColor=#d5e8d4;strokeColor=#82b366;" parent="MYsSgo4POYtnwkgsz7Fz-36" vertex="1">
          <mxGeometry y="270" width="90" height="20" as="geometry" />
        </mxCell>
        <mxCell id="MYsSgo4POYtnwkgsz7Fz-42" value="磁盘柜" style="rounded=0;whiteSpace=wrap;html=1;fillColor=#d5e8d4;strokeColor=#82b366;" parent="MYsSgo4POYtnwkgsz7Fz-36" vertex="1">
          <mxGeometry y="240" width="90" height="20" as="geometry" />
        </mxCell>
        <mxCell id="MYsSgo4POYtnwkgsz7Fz-43" value="服务器/虚拟机" style="rounded=0;whiteSpace=wrap;html=1;fillColor=#d5e8d4;strokeColor=#82b366;" parent="MYsSgo4POYtnwkgsz7Fz-36" vertex="1">
          <mxGeometry y="210" width="90" height="20" as="geometry" />
        </mxCell>
        <mxCell id="MYsSgo4POYtnwkgsz7Fz-44" value="操作系统" style="rounded=0;whiteSpace=wrap;html=1;fillColor=#d5e8d4;strokeColor=#82b366;" parent="MYsSgo4POYtnwkgsz7Fz-36" vertex="1">
          <mxGeometry y="180" width="90" height="20" as="geometry" />
        </mxCell>
        <mxCell id="MYsSgo4POYtnwkgsz7Fz-45" value="中间件/运行库" style="rounded=0;whiteSpace=wrap;html=1;fillColor=#d5e8d4;strokeColor=#82b366;" parent="MYsSgo4POYtnwkgsz7Fz-36" vertex="1">
          <mxGeometry y="120" width="90" height="20" as="geometry" />
        </mxCell>
        <mxCell id="MYsSgo4POYtnwkgsz7Fz-46" value="数据信息" style="rounded=0;whiteSpace=wrap;html=1;fillColor=#d5e8d4;strokeColor=#82b366;" parent="MYsSgo4POYtnwkgsz7Fz-36" vertex="1">
          <mxGeometry y="90" width="90" height="20" as="geometry" />
        </mxCell>
        <mxCell id="MYsSgo4POYtnwkgsz7Fz-47" value="应用程序" style="rounded=0;whiteSpace=wrap;html=1;fillColor=#d5e8d4;strokeColor=#82b366;" parent="MYsSgo4POYtnwkgsz7Fz-36" vertex="1">
          <mxGeometry y="60" width="90" height="20" as="geometry" />
        </mxCell>
        <mxCell id="MYsSgo4POYtnwkgsz7Fz-48" value="人工智能" style="rounded=0;whiteSpace=wrap;html=1;" parent="MYsSgo4POYtnwkgsz7Fz-36" vertex="1">
          <mxGeometry width="90" height="20" as="geometry" />
        </mxCell>
        <mxCell id="MYsSgo4POYtnwkgsz7Fz-49" value="" style="group" parent="1" connectable="0" vertex="1">
          <mxGeometry x="400" y="210" width="90" height="350" as="geometry" />
        </mxCell>
        <mxCell id="MYsSgo4POYtnwkgsz7Fz-50" value="基础理论" style="rounded=0;whiteSpace=wrap;html=1;fillColor=#d5e8d4;strokeColor=#82b366;" parent="MYsSgo4POYtnwkgsz7Fz-49" vertex="1">
          <mxGeometry y="330" width="90" height="20" as="geometry" />
        </mxCell>
        <mxCell id="MYsSgo4POYtnwkgsz7Fz-51" value="存储系统" style="rounded=0;whiteSpace=wrap;html=1;fillColor=#d5e8d4;strokeColor=#82b366;" parent="MYsSgo4POYtnwkgsz7Fz-49" vertex="1">
          <mxGeometry y="150" width="90" height="20" as="geometry" />
        </mxCell>
        <mxCell id="MYsSgo4POYtnwkgsz7Fz-52" value="数据治理" style="rounded=0;whiteSpace=wrap;html=1;" parent="MYsSgo4POYtnwkgsz7Fz-49" vertex="1">
          <mxGeometry y="30" width="90" height="20" as="geometry" />
        </mxCell>
        <mxCell id="MYsSgo4POYtnwkgsz7Fz-53" value="机房基础设施" style="rounded=0;whiteSpace=wrap;html=1;fillColor=#d5e8d4;strokeColor=#82b366;" parent="MYsSgo4POYtnwkgsz7Fz-49" vertex="1">
          <mxGeometry y="300" width="90" height="20" as="geometry" />
        </mxCell>
        <mxCell id="MYsSgo4POYtnwkgsz7Fz-54" value="计算机网络" style="rounded=0;whiteSpace=wrap;html=1;fillColor=#d5e8d4;strokeColor=#82b366;" parent="MYsSgo4POYtnwkgsz7Fz-49" vertex="1">
          <mxGeometry y="270" width="90" height="20" as="geometry" />
        </mxCell>
        <mxCell id="MYsSgo4POYtnwkgsz7Fz-55" value="磁盘柜" style="rounded=0;whiteSpace=wrap;html=1;fillColor=#d5e8d4;strokeColor=#82b366;" parent="MYsSgo4POYtnwkgsz7Fz-49" vertex="1">
          <mxGeometry y="240" width="90" height="20" as="geometry" />
        </mxCell>
        <mxCell id="MYsSgo4POYtnwkgsz7Fz-56" value="服务器/虚拟机" style="rounded=0;whiteSpace=wrap;html=1;fillColor=#d5e8d4;strokeColor=#82b366;" parent="MYsSgo4POYtnwkgsz7Fz-49" vertex="1">
          <mxGeometry y="210" width="90" height="20" as="geometry" />
        </mxCell>
        <mxCell id="MYsSgo4POYtnwkgsz7Fz-57" value="操作系统" style="rounded=0;whiteSpace=wrap;html=1;fillColor=#d5e8d4;strokeColor=#82b366;" parent="MYsSgo4POYtnwkgsz7Fz-49" vertex="1">
          <mxGeometry y="180" width="90" height="20" as="geometry" />
        </mxCell>
        <mxCell id="MYsSgo4POYtnwkgsz7Fz-58" value="中间件/运行库" style="rounded=0;whiteSpace=wrap;html=1;fillColor=#d5e8d4;strokeColor=#82b366;" parent="MYsSgo4POYtnwkgsz7Fz-49" vertex="1">
          <mxGeometry y="120" width="90" height="20" as="geometry" />
        </mxCell>
        <mxCell id="MYsSgo4POYtnwkgsz7Fz-59" value="数据信息" style="rounded=0;whiteSpace=wrap;html=1;" parent="MYsSgo4POYtnwkgsz7Fz-49" vertex="1">
          <mxGeometry y="90" width="90" height="20" as="geometry" />
        </mxCell>
        <mxCell id="MYsSgo4POYtnwkgsz7Fz-60" value="应用程序" style="rounded=0;whiteSpace=wrap;html=1;" parent="MYsSgo4POYtnwkgsz7Fz-49" vertex="1">
          <mxGeometry y="60" width="90" height="20" as="geometry" />
        </mxCell>
        <mxCell id="MYsSgo4POYtnwkgsz7Fz-61" value="人工智能" style="rounded=0;whiteSpace=wrap;html=1;" parent="MYsSgo4POYtnwkgsz7Fz-49" vertex="1">
          <mxGeometry width="90" height="20" as="geometry" />
        </mxCell>
        <mxCell id="MYsSgo4POYtnwkgsz7Fz-62" value="" style="group" parent="1" connectable="0" vertex="1">
          <mxGeometry x="807" y="210" width="90" height="350" as="geometry" />
        </mxCell>
        <mxCell id="MYsSgo4POYtnwkgsz7Fz-63" value="基础理论" style="rounded=0;whiteSpace=wrap;html=1;fillColor=#d5e8d4;strokeColor=#82b366;" parent="MYsSgo4POYtnwkgsz7Fz-62" vertex="1">
          <mxGeometry y="330" width="90" height="20" as="geometry" />
        </mxCell>
        <mxCell id="MYsSgo4POYtnwkgsz7Fz-64" value="存储系统" style="rounded=0;whiteSpace=wrap;html=1;fillColor=#d5e8d4;strokeColor=#82b366;" parent="MYsSgo4POYtnwkgsz7Fz-62" vertex="1">
          <mxGeometry y="150" width="90" height="20" as="geometry" />
        </mxCell>
        <mxCell id="MYsSgo4POYtnwkgsz7Fz-65" value="数据治理" style="rounded=0;whiteSpace=wrap;html=1;fillColor=#d5e8d4;strokeColor=#82b366;" parent="MYsSgo4POYtnwkgsz7Fz-62" vertex="1">
          <mxGeometry y="30" width="90" height="20" as="geometry" />
        </mxCell>
        <mxCell id="MYsSgo4POYtnwkgsz7Fz-66" value="机房基础设施" style="rounded=0;whiteSpace=wrap;html=1;fillColor=#d5e8d4;strokeColor=#82b366;" parent="MYsSgo4POYtnwkgsz7Fz-62" vertex="1">
          <mxGeometry y="300" width="90" height="20" as="geometry" />
        </mxCell>
        <mxCell id="MYsSgo4POYtnwkgsz7Fz-67" value="计算机网络" style="rounded=0;whiteSpace=wrap;html=1;fillColor=#d5e8d4;strokeColor=#82b366;" parent="MYsSgo4POYtnwkgsz7Fz-62" vertex="1">
          <mxGeometry y="270" width="90" height="20" as="geometry" />
        </mxCell>
        <mxCell id="MYsSgo4POYtnwkgsz7Fz-68" value="磁盘柜" style="rounded=0;whiteSpace=wrap;html=1;fillColor=#d5e8d4;strokeColor=#82b366;" parent="MYsSgo4POYtnwkgsz7Fz-62" vertex="1">
          <mxGeometry y="240" width="90" height="20" as="geometry" />
        </mxCell>
        <mxCell id="MYsSgo4POYtnwkgsz7Fz-69" value="服务器/虚拟机" style="rounded=0;whiteSpace=wrap;html=1;fillColor=#d5e8d4;strokeColor=#82b366;" parent="MYsSgo4POYtnwkgsz7Fz-62" vertex="1">
          <mxGeometry y="210" width="90" height="20" as="geometry" />
        </mxCell>
        <mxCell id="MYsSgo4POYtnwkgsz7Fz-70" value="操作系统" style="rounded=0;whiteSpace=wrap;html=1;fillColor=#d5e8d4;strokeColor=#82b366;" parent="MYsSgo4POYtnwkgsz7Fz-62" vertex="1">
          <mxGeometry y="180" width="90" height="20" as="geometry" />
        </mxCell>
        <mxCell id="MYsSgo4POYtnwkgsz7Fz-71" value="中间件/运行库" style="rounded=0;whiteSpace=wrap;html=1;fillColor=#d5e8d4;strokeColor=#82b366;" parent="MYsSgo4POYtnwkgsz7Fz-62" vertex="1">
          <mxGeometry y="120" width="90" height="20" as="geometry" />
        </mxCell>
        <mxCell id="MYsSgo4POYtnwkgsz7Fz-72" value="数据信息" style="rounded=0;whiteSpace=wrap;html=1;fillColor=#d5e8d4;strokeColor=#82b366;" parent="MYsSgo4POYtnwkgsz7Fz-62" vertex="1">
          <mxGeometry y="90" width="90" height="20" as="geometry" />
        </mxCell>
        <mxCell id="MYsSgo4POYtnwkgsz7Fz-73" value="应用程序" style="rounded=0;whiteSpace=wrap;html=1;fillColor=#d5e8d4;strokeColor=#82b366;" parent="MYsSgo4POYtnwkgsz7Fz-62" vertex="1">
          <mxGeometry y="60" width="90" height="20" as="geometry" />
        </mxCell>
        <mxCell id="MYsSgo4POYtnwkgsz7Fz-74" value="人工智能" style="rounded=0;whiteSpace=wrap;html=1;fillColor=#d5e8d4;strokeColor=#82b366;" parent="MYsSgo4POYtnwkgsz7Fz-62" vertex="1">
          <mxGeometry width="90" height="20" as="geometry" />
        </mxCell>
        <mxCell id="MYsSgo4POYtnwkgsz7Fz-75" value="基础理论" style="rounded=0;whiteSpace=wrap;html=1;fillColor=#d5e8d4;strokeColor=#82b366;" parent="1" vertex="1">
          <mxGeometry x="670" y="540" width="90" height="20" as="geometry" />
        </mxCell>
        <mxCell id="MYsSgo4POYtnwkgsz7Fz-76" value="存储系统" style="rounded=0;whiteSpace=wrap;html=1;fillColor=#d5e8d4;strokeColor=#82b366;" parent="1" vertex="1">
          <mxGeometry x="670" y="360" width="90" height="20" as="geometry" />
        </mxCell>
        <mxCell id="MYsSgo4POYtnwkgsz7Fz-77" value="数据治理" style="rounded=0;whiteSpace=wrap;html=1;fillColor=#d5e8d4;strokeColor=#82b366;" parent="1" vertex="1">
          <mxGeometry x="670" y="240" width="90" height="20" as="geometry" />
        </mxCell>
        <mxCell id="MYsSgo4POYtnwkgsz7Fz-78" value="机房基础设施" style="rounded=0;whiteSpace=wrap;html=1;fillColor=#d5e8d4;strokeColor=#82b366;" parent="1" vertex="1">
          <mxGeometry x="670" y="510" width="90" height="20" as="geometry" />
        </mxCell>
        <mxCell id="MYsSgo4POYtnwkgsz7Fz-79" value="计算机网络" style="rounded=0;whiteSpace=wrap;html=1;fillColor=#d5e8d4;strokeColor=#82b366;" parent="1" vertex="1">
          <mxGeometry x="670" y="480" width="90" height="20" as="geometry" />
        </mxCell>
        <mxCell id="MYsSgo4POYtnwkgsz7Fz-80" value="磁盘柜" style="rounded=0;whiteSpace=wrap;html=1;fillColor=#d5e8d4;strokeColor=#82b366;" parent="1" vertex="1">
          <mxGeometry x="670" y="450" width="90" height="20" as="geometry" />
        </mxCell>
        <mxCell id="MYsSgo4POYtnwkgsz7Fz-81" value="服务器/虚拟机" style="rounded=0;whiteSpace=wrap;html=1;fillColor=#d5e8d4;strokeColor=#82b366;" parent="1" vertex="1">
          <mxGeometry x="670" y="420" width="90" height="20" as="geometry" />
        </mxCell>
        <mxCell id="MYsSgo4POYtnwkgsz7Fz-82" value="操作系统" style="rounded=0;whiteSpace=wrap;html=1;fillColor=#d5e8d4;strokeColor=#82b366;" parent="1" vertex="1">
          <mxGeometry x="670" y="390" width="90" height="20" as="geometry" />
        </mxCell>
        <mxCell id="MYsSgo4POYtnwkgsz7Fz-83" value="中间件/运行库" style="rounded=0;whiteSpace=wrap;html=1;fillColor=#d5e8d4;strokeColor=#82b366;" parent="1" vertex="1">
          <mxGeometry x="670" y="330" width="90" height="20" as="geometry" />
        </mxCell>
        <mxCell id="MYsSgo4POYtnwkgsz7Fz-84" value="数据信息" style="rounded=0;whiteSpace=wrap;html=1;fillColor=#d5e8d4;strokeColor=#82b366;" parent="1" vertex="1">
          <mxGeometry x="670" y="300" width="90" height="20" as="geometry" />
        </mxCell>
        <mxCell id="MYsSgo4POYtnwkgsz7Fz-85" value="应用程序" style="rounded=0;whiteSpace=wrap;html=1;fillColor=#d5e8d4;strokeColor=#82b366;" parent="1" vertex="1">
          <mxGeometry x="670" y="270" width="90" height="20" as="geometry" />
        </mxCell>
        <mxCell id="MYsSgo4POYtnwkgsz7Fz-86" value="人工智能" style="rounded=0;whiteSpace=wrap;html=1;" parent="1" vertex="1">
          <mxGeometry x="670" y="210" width="90" height="20" as="geometry" />
        </mxCell>
      </root>
    </mxGraphModel>
  </diagram>
</mxfile>
